<svg width="192" height="192" viewBox="0 0 192 192" fill="none" xmlns="http://www.w3.org/2000/svg">
<g clip-path="url(#clip0_2490_13506)">
<g filter="url(#filter0_d_2490_13506)">
<rect y="-0.28125" width="192" height="192" fill="#1C1C1C"/>
</g>
<path d="M148.246 84.3623C149.052 85.5914 149.916 86.9799 150.817 88.5039C153.359 92.8033 155.649 97.2141 157.08 100.001C159.776 105.25 162.107 109.442 164.583 114.106C167.313 119.248 168.062 120.569 170.111 124.794C171.345 127.337 173.003 130.354 174.323 132.833C175.763 135.537 176.933 137.841 177.7 139.72L177.807 139.98L177.926 140.235C179.21 142.979 183.34 150.854 187.028 157.938C188.838 161.415 190.595 164.801 192 167.558V192H0V167.582C0.0541343 167.482 0.108653 167.379 0.165039 167.275C1.42812 164.946 3.10783 161.941 4.88965 158.777C8.35627 152.622 12.348 145.63 13.8242 142.845C16.4332 137.921 19.3766 133.601 22.9404 127.642C27.1837 120.546 28.9674 117.703 30.085 115.961C31.2316 114.173 31.9283 113.158 33.748 110.095C36.9276 104.742 39.3115 100.964 42.8662 96.4521C44.0855 94.9046 45.5754 92.597 46.7725 90.7627C48.0075 88.8701 49.2747 86.9342 50.5625 85.1143C50.7381 85.3609 50.8942 85.5836 51.0264 85.7793C51.268 86.1371 51.366 86.3039 51.3672 86.3057C54.5141 91.827 58.9729 98.7178 62.9258 103.988C66.1309 108.262 68.0682 111.99 73.5 117.052C76.3015 119.663 80.0215 122.407 84.9453 124.128C89.9312 125.87 95.5161 126.339 101.723 125.296C111.088 123.721 117.733 118.184 121.886 114.523C127.489 109.584 132.936 102.612 136.16 99.0332C138.238 96.7272 141.505 92.6552 144.359 89.125C145.782 87.3661 147.102 85.744 148.246 84.3623ZM192 118.34C191.356 117.13 190.785 116.034 190.287 115.008C188.015 110.323 187.027 108.561 184.389 103.592C181.641 98.4166 179.657 94.879 177.027 89.7578C175.566 86.9116 173.022 82.0012 170.12 77.0928C167.396 72.484 163.72 66.7602 159.88 63.0215C158.527 61.7044 156.521 59.9825 153.864 58.8936C150.719 57.6045 147.23 57.4348 143.874 58.6299C141.083 59.624 139.117 61.3236 138.108 62.251C137.071 63.2053 135.953 64.408 135.257 65.1377C133.096 67.4027 129.774 71.4999 126.923 75.0254C123.8 78.8871 121.062 82.2921 119.502 84.0234C114.425 89.6579 111.423 93.8541 107.058 97.7021C103.205 101.099 100.659 102.736 98.0059 103.183C95.1629 103.661 93.4313 103.34 92.3418 102.959C91.19 102.557 90.0741 101.846 88.7881 100.647C87.0803 99.0559 86.285 98.0894 85.4629 96.9678C84.9489 96.2666 84.467 95.563 83.6768 94.4316C82.925 93.3554 82.021 92.0765 80.8643 90.5342C77.5296 86.088 73.5791 79.9927 70.8486 75.2021C69.5861 72.987 67.0656 69.6076 64.8252 66.957C63.6591 65.5774 62.2761 64.0451 60.8838 62.7627C60.207 62.1393 59.2713 61.3351 58.168 60.6182C57.5354 60.2071 54.8638 58.4416 51.1533 58.4414C47.7846 58.4413 45.0875 59.652 43.3711 60.6562C41.5935 61.6963 40.1013 62.9652 38.9346 64.0889C36.612 66.3258 34.4874 69.0601 32.7637 71.4541C30.9921 73.9145 29.3197 76.4766 27.9941 78.5078C26.5036 80.7918 25.6911 82.0191 25.2529 82.5752C20.8014 88.2254 17.8357 92.9773 14.4697 98.6436C12.8993 101.287 12.4748 101.884 11.2109 103.854C9.91776 105.871 8.00167 108.934 3.69629 116.133C2.61949 117.933 1.33862 119.984 0 122.146V0H192V118.34Z" fill="url(#paint0_linear_2490_13506)"/>
</g>
<defs>
<filter id="filter0_d_2490_13506" x="-26.3474" y="-25.5075" width="244.695" height="244.695" filterUnits="userSpaceOnUse" color-interpolation-filters="sRGB">
<feFlood flood-opacity="0" result="BackgroundImageFix"/>
<feColorMatrix in="SourceAlpha" type="matrix" values="0 0 0 0 0 0 0 0 0 0 0 0 0 0 0 0 0 0 127 0" result="hardAlpha"/>
<feMorphology radius="3.3635" operator="dilate" in="SourceAlpha" result="effect1_dropShadow_2490_13506"/>
<feOffset dy="1.12117"/>
<feGaussianBlur stdDeviation="11.492"/>
<feComposite in2="hardAlpha" operator="out"/>
<feColorMatrix type="matrix" values="0 0 0 0 0 0 0 0 0 0 0 0 0 0 0 0 0 0 0.25 0"/>
<feBlend mode="normal" in2="BackgroundImageFix" result="effect1_dropShadow_2490_13506"/>
<feBlend mode="normal" in="SourceGraphic" in2="effect1_dropShadow_2490_13506" result="shape"/>
</filter>
<linearGradient id="paint0_linear_2490_13506" x1="96" y1="0" x2="96" y2="192" gradientUnits="userSpaceOnUse">
<stop stop-color="#B6EEFF"/>
<stop offset="1" stop-color="#FFFC9A"/>
</linearGradient>
<clipPath id="clip0_2490_13506">
<rect width="192" height="192" rx="70.073" fill="white"/>
</clipPath>
</defs>
</svg>
